# xmcd
#
# Track frame offsets: 
#        150
#        15577
#        34502
#        49800
#        65565
#        85892
#        102672
#        117007
#        136042
#        156020
#        171802
#        186267
#        204202
#        219952
#        236432
#        249950
#        275345
#
# Disc length: 3912 seconds
#
# Revision: 3
# Processed by: cddbd v1.5.2PL0 Copyright (c) Steve Scherf et al.
# Submitted via: ExactAudioCopy v1.0b3
#
DISCID=da0f4611
DTITLE=（コンピレーション） - 銀河鉄道９９９
DYEAR=1989
DGENRE=Animation
TTITLE0=ささきいさお、杉並児童合唱団 - 銀河鉄道９９９
TTITLE1=ささきいさお、こおろぎ'73 - ぼくの行く道
TTITLE2=ささきいさお、杉並児童合唱団 - 夢のスリーナイン号
TTITLE3=渡辺直子、杉並児童合唱団 - ふ・る・さ・と
TTITLE4=ささきいさお - 目をとじて
TTITLE5=かおりくみこ - 想い出なみだ色
TTITLE6=かおりくみこ - レリューズのテーマ
TTITLE7=ささきいさお、こおろぎ'73 - 銀河哀歌
TTITLE8=moJo - 人生の停車駅
TTITLE9=ささきいさお - ぼくのメーテル
TTITLE10=渡辺直子、ザ・チャープス - 鉄郎の子守歌
TTITLE11=ささきいさお、杉並児童合唱団 - 青い地球
TTITLE12=ゴダイゴ - 銀河鉄道９９９(THE GALAXY EXPRESS 999)
TTITLE13=ゴダイゴ - テイキング・オフ！(TAKING OFF!)
TTITLE14=かおりくみこ - やさしくしないで
TTITLE15=Mary Macgregor, Los Angeles Symphonic Studio Orchestra - SAYO
TTITLE15=NARA
TTITLE16=Mary Macgregor, Los Angeles Symphonic Studio Orchestra - LOVE
TTITLE16=LIGHT
EXTD=YEAR: 1989
EXTT0=
EXTT1=
EXTT2=
EXTT3=
EXTT4=
EXTT5=
EXTT6=
EXTT7=
EXTT8=
EXTT9=
EXTT10=
EXTT11=
EXTT12=
EXTT13=
EXTT14=
EXTT15=
EXTT16=
PLAYORDER=
